# xmcd
#
# Track frame offsets:
#        150
#        17075
#        32600
#        50014
#        64932
#        78625
#        92425
#        103460
#        116915
#        133770
#        149275
#        166680
#        181607
#        195187
#        208920
#        219987
#
# Disc length: 3113 seconds
#
# Revision: 0
# Processed by: cddbd v1.5.2PL0 Copyright (c) Steve Scherf et al.
# Submitted via: CDGFix 3.8d
#
DISCID=e10c2710
DTITLE=Clay Walker - SC2150
DYEAR=1900
DGENRE=Karaoke
TTITLE0=Clay Walker - Dreaming With My Eyes Open
TTITLE1=Clay Walker - One Two I Love You
TTITLE2=Clay Walker - Hypnotize The Moon
TTITLE3=Clay Walker - Rumor Has It
TTITLE4=Clay Walker - What's It To You
TTITLE5=Clay Walker - Who Needs You Baby
TTITLE6=Clay Walker - If I Could Make A Living
TTITLE7=Clay Walker - Only On Days That End In Y
TTITLE8=Clay Walker W/Vocal - Dreaming With My Eyes Open
TTITLE9=Clay Walker W/Vocal - One Two I Love You
TTITLE10=Clay Walker W/Vocal - Hypnotize The Moon
TTITLE11=Clay Walker W/Vocal - Rumor Has It
TTITLE12=Clay Walker W/Vocal - What's It To You
TTITLE13=Clay Walker W/Vocal - Who Needs You Baby
TTITLE14=Clay Walker W/Vocal - If I Could Make A Living
TTITLE15=Clay Walker W/Vocal - Only On Days That End In Y
EXTD=
EXTT0=
EXTT1=
EXTT2=
EXTT3=
EXTT4=
EXTT5=
EXTT6=
EXTT7=
EXTT8=
EXTT9=
EXTT10=
EXTT11=
EXTT12=
EXTT13=
EXTT14=
EXTT15=
PLAYORDER=
